# MagicaVoxel @ Ephtracy

# material
mtllib 1_1_Block.mtl
usemtl palette

# normals
vn -1 0 0
vn 1 0 0
vn 0 0 1
vn 0 0 -1
vn 0 -1 0
vn 0 1 0

# texcoords
vt 0.0644531 0.5
vt 0.0683594 0.5
vt 0.0722656 0.5
vt 0.0761719 0.5

# verts
v -8 0 8
v -8 0 -8
v -8 13 3
v -8 13 -3
v -8 14 4
v -8 14 3
v -8 14 -3
v -8 14 -4
v -8 15 5
v -8 15 4
v -8 15 -4
v -8 15 -5
v -8 16 8
v -8 16 5
v -8 16 -5
v -8 16 -8
v 8 0 8
v 8 0 -8
v 8 13 3
v 8 13 -3
v 8 14 4
v 8 14 3
v 8 14 -3
v 8 14 -4
v 8 15 5
v 8 15 4
v 8 15 -4
v 8 15 -5
v 8 16 8
v 8 16 5
v 8 16 -5
v 8 16 -8
v -8 0 8
v -8 16 8
v -5 15 8
v -5 16 8
v -4 14 8
v -4 15 8
v -3 13 8
v -3 14 8
v 3 13 8
v 3 14 8
v 4 14 8
v 4 15 8
v 5 15 8
v 5 16 8
v 8 0 8
v 8 16 8
v -8 0 -8
v -8 16 -8
v -5 15 -8
v -5 16 -8
v -4 14 -8
v -4 15 -8
v -3 13 -8
v -3 14 -8
v 3 13 -8
v 3 14 -8
v 4 14 -8
v 4 15 -8
v 5 15 -8
v 5 16 -8
v 8 0 -8
v 8 16 -8
v -8 0 8
v 8 0 8
v -8 0 -8
v 8 0 -8
v -8 16 8
v -5 16 8
v 5 16 8
v 8 16 8
v -6 16 7
v -5 16 7
v 5 16 7
v 6 16 7
v -7 16 6
v -6 16 6
v -3 16 6
v 3 16 6
v 6 16 6
v 7 16 6
v -8 16 5
v -7 16 5
v -4 16 5
v -3 16 5
v 3 16 5
v 4 16 5
v 7 16 5
v 8 16 5
v -5 16 4
v -4 16 4
v -2 16 4
v 2 16 4
v 4 16 4
v 5 16 4
v -6 16 3
v -5 16 3
v -3 16 3
v -2 16 3
v 2 16 3
v 3 16 3
v 5 16 3
v 6 16 3
v -4 16 2
v -3 16 2
v 3 16 2
v 4 16 2
v -4 16 -2
v -3 16 -2
v 3 16 -2
v 4 16 -2
v -6 16 -3
v -5 16 -3
v -3 16 -3
v -2 16 -3
v 2 16 -3
v 3 16 -3
v 5 16 -3
v 6 16 -3
v -5 16 -4
v -4 16 -4
v -2 16 -4
v 2 16 -4
v 4 16 -4
v 5 16 -4
v -8 16 -5
v -7 16 -5
v -4 16 -5
v -3 16 -5
v 3 16 -5
v 4 16 -5
v 7 16 -5
v 8 16 -5
v -7 16 -6
v -6 16 -6
v -3 16 -6
v 3 16 -6
v 6 16 -6
v 7 16 -6
v -6 16 -7
v -5 16 -7
v 5 16 -7
v 6 16 -7
v -8 16 -8
v -5 16 -8
v 5 16 -8
v 8 16 -8

# faces
f 3/1/1 2/1/1 1/1/1
f 4/1/1 2/1/1 3/1/1
f 5/1/1 3/1/1 1/1/1
f 6/2/1 4/2/1 3/2/1
f 6/1/1 3/1/1 5/1/1
f 7/1/1 2/1/1 4/1/1
f 7/2/1 4/2/1 6/2/1
f 8/1/1 2/1/1 7/1/1
f 9/1/1 5/1/1 1/1/1
f 10/2/1 6/2/1 5/2/1
f 10/1/1 5/1/1 9/1/1
f 10/2/1 7/2/1 6/2/1
f 10/2/1 8/2/1 7/2/1
f 11/1/1 2/1/1 8/1/1
f 11/2/1 8/2/1 10/2/1
f 12/1/1 2/1/1 11/1/1
f 13/1/1 9/1/1 1/1/1
f 14/2/1 10/2/1 9/2/1
f 14/1/1 9/1/1 13/1/1
f 14/2/1 11/2/1 10/2/1
f 14/2/1 12/2/1 11/2/1
f 15/1/1 2/1/1 12/1/1
f 15/2/1 12/2/1 14/2/1
f 16/1/1 2/1/1 15/1/1
f 17/1/2 18/1/2 19/1/2
f 19/1/2 18/1/2 20/1/2
f 17/1/2 19/1/2 21/1/2
f 19/2/2 20/2/2 22/2/2
f 21/1/2 19/1/2 22/1/2
f 20/1/2 18/1/2 23/1/2
f 22/2/2 20/2/2 23/2/2
f 23/1/2 18/1/2 24/1/2
f 17/1/2 21/1/2 25/1/2
f 21/2/2 22/2/2 26/2/2
f 25/1/2 21/1/2 26/1/2
f 22/2/2 23/2/2 26/2/2
f 23/2/2 24/2/2 26/2/2
f 24/1/2 18/1/2 27/1/2
f 26/2/2 24/2/2 27/2/2
f 27/1/2 18/1/2 28/1/2
f 17/1/2 25/1/2 29/1/2
f 25/2/2 26/2/2 30/2/2
f 29/1/2 25/1/2 30/1/2
f 26/2/2 27/2/2 30/2/2
f 27/2/2 28/2/2 30/2/2
f 28/1/2 18/1/2 31/1/2
f 30/2/2 28/2/2 31/2/2
f 31/1/2 18/1/2 32/1/2
f 35/1/3 34/1/3 33/1/3
f 36/1/3 34/1/3 35/1/3
f 37/1/3 35/1/3 33/1/3
f 38/2/3 36/2/3 35/2/3
f 38/1/3 35/1/3 37/1/3
f 39/1/3 37/1/3 33/1/3
f 40/2/3 38/2/3 37/2/3
f 40/1/3 37/1/3 39/1/3
f 41/1/3 39/1/3 33/1/3
f 41/2/3 40/2/3 39/2/3
f 42/2/3 38/2/3 40/2/3
f 42/2/3 40/2/3 41/2/3
f 43/1/3 42/1/3 41/1/3
f 43/2/3 38/2/3 42/2/3
f 44/2/3 36/2/3 38/2/3
f 44/2/3 38/2/3 43/2/3
f 45/1/3 44/1/3 43/1/3
f 45/2/3 36/2/3 44/2/3
f 46/2/3 36/2/3 45/2/3
f 47/1/3 43/1/3 41/1/3
f 47/1/3 41/1/3 33/1/3
f 47/1/3 46/1/3 45/1/3
f 47/1/3 45/1/3 43/1/3
f 48/1/3 46/1/3 47/1/3
f 49/1/4 50/1/4 51/1/4
f 51/1/4 50/1/4 52/1/4
f 49/1/4 51/1/4 53/1/4
f 51/2/4 52/2/4 54/2/4
f 53/1/4 51/1/4 54/1/4
f 49/1/4 53/1/4 55/1/4
f 53/2/4 54/2/4 56/2/4
f 55/1/4 53/1/4 56/1/4
f 49/1/4 55/1/4 57/1/4
f 55/2/4 56/2/4 57/2/4
f 56/2/4 54/2/4 58/2/4
f 57/2/4 56/2/4 58/2/4
f 57/1/4 58/1/4 59/1/4
f 58/2/4 54/2/4 59/2/4
f 54/2/4 52/2/4 60/2/4
f 59/2/4 54/2/4 60/2/4
f 59/1/4 60/1/4 61/1/4
f 60/2/4 52/2/4 61/2/4
f 61/2/4 52/2/4 62/2/4
f 57/1/4 59/1/4 63/1/4
f 49/1/4 57/1/4 63/1/4
f 61/1/4 62/1/4 63/1/4
f 59/1/4 61/1/4 63/1/4
f 63/1/4 62/1/4 64/1/4
f 67/1/5 66/1/5 65/1/5
f 68/1/5 66/1/5 67/1/5
f 69/1/6 70/1/6 73/1/6
f 70/2/6 71/2/6 74/2/6
f 73/1/6 70/1/6 74/1/6
f 71/1/6 72/1/6 75/1/6
f 74/2/6 71/2/6 75/2/6
f 75/1/6 72/1/6 76/1/6
f 69/1/6 73/1/6 77/1/6
f 73/2/6 74/2/6 78/2/6
f 77/1/6 73/1/6 78/1/6
f 74/2/6 75/2/6 78/2/6
f 75/2/6 76/2/6 78/2/6
f 78/2/6 76/2/6 79/2/6
f 79/2/6 76/2/6 80/2/6
f 76/1/6 72/1/6 81/1/6
f 80/2/6 76/2/6 81/2/6
f 81/1/6 72/1/6 82/1/6
f 69/1/6 77/1/6 83/1/6
f 77/2/6 78/2/6 84/2/6
f 83/1/6 77/1/6 84/1/6
f 78/2/6 79/2/6 84/2/6
f 84/2/6 79/2/6 85/2/6
f 79/3/6 80/3/6 86/3/6
f 85/2/6 79/2/6 86/2/6
f 81/2/6 82/2/6 87/2/6
f 86/3/6 80/3/6 87/3/6
f 80/2/6 81/2/6 87/2/6
f 87/2/6 82/2/6 88/2/6
f 82/1/6 72/1/6 89/1/6
f 88/2/6 82/2/6 89/2/6
f 89/1/6 72/1/6 90/1/6
f 84/2/6 85/2/6 91/2/6
f 83/2/6 84/2/6 91/2/6
f 87/3/6 88/3/6 92/3/6
f 91/2/6 85/2/6 92/2/6
f 85/3/6 86/3/6 92/3/6
f 86/3/6 87/3/6 92/3/6
f 92/3/6 88/3/6 93/3/6
f 93/3/6 88/3/6 94/3/6
f 88/2/6 89/2/6 95/2/6
f 94/3/6 88/3/6 95/3/6
f 89/2/6 90/2/6 95/2/6
f 95/2/6 90/2/6 96/2/6
f 83/2/6 91/2/6 97/2/6
f 92/3/6 93/3/6 98/3/6
f 97/2/6 91/2/6 98/2/6
f 91/3/6 92/3/6 98/3/6
f 98/3/6 93/3/6 99/3/6
f 93/4/6 94/4/6 100/4/6
f 99/3/6 93/3/6 100/3/6
f 95/3/6 96/3/6 101/3/6
f 100/4/6 94/4/6 101/4/6
f 94/3/6 95/3/6 101/3/6
f 101/3/6 96/3/6 102/3/6
f 96/2/6 90/2/6 103/2/6
f 102/3/6 96/3/6 103/3/6
f 103/2/6 90/2/6 104/2/6
f 98/3/6 99/3/6 105/3/6
f 97/3/6 98/3/6 105/3/6
f 101/4/6 102/4/6 106/4/6
f 105/3/6 99/3/6 106/3/6
f 99/4/6 100/4/6 106/4/6
f 100/4/6 101/4/6 106/4/6
f 102/3/6 103/3/6 107/3/6
f 106/4/6 102/4/6 107/4/6
f 103/3/6 104/3/6 107/3/6
f 107/3/6 104/3/6 108/3/6
f 97/3/6 105/3/6 109/3/6
f 105/4/6 106/4/6 109/4/6
f 107/4/6 108/4/6 109/4/6
f 106/4/6 107/4/6 109/4/6
f 109/4/6 108/4/6 110/4/6
f 110/4/6 108/4/6 111/4/6
f 108/3/6 104/3/6 112/3/6
f 111/4/6 108/4/6 112/4/6
f 83/2/6 97/2/6 113/2/6
f 97/3/6 109/3/6 113/3/6
f 109/3/6 110/3/6 113/3/6
f 113/3/6 110/3/6 114/3/6
f 110/4/6 111/4/6 115/4/6
f 114/3/6 110/3/6 115/3/6
f 115/4/6 111/4/6 116/4/6
f 116/4/6 111/4/6 117/4/6
f 111/3/6 112/3/6 118/3/6
f 117/4/6 111/4/6 118/4/6
f 112/3/6 104/3/6 119/3/6
f 118/3/6 112/3/6 119/3/6
f 104/2/6 90/2/6 120/2/6
f 119/3/6 104/3/6 120/3/6
f 113/2/6 114/2/6 121/2/6
f 114/3/6 115/3/6 121/3/6
f 115/3/6 116/3/6 121/3/6
f 121/3/6 116/3/6 122/3/6
f 116/4/6 117/4/6 123/4/6
f 122/3/6 116/3/6 123/3/6
f 118/3/6 119/3/6 124/3/6
f 123/4/6 117/4/6 124/4/6
f 117/3/6 118/3/6 124/3/6
f 124/3/6 119/3/6 125/3/6
f 119/2/6 120/2/6 126/2/6
f 125/3/6 119/3/6 126/3/6
f 113/2/6 121/2/6 127/2/6
f 121/2/6 122/2/6 127/2/6
f 83/2/6 113/2/6 127/2/6
f 127/2/6 122/2/6 128/2/6
f 122/3/6 123/3/6 129/3/6
f 128/2/6 122/2/6 129/2/6
f 123/3/6 124/3/6 129/3/6
f 124/3/6 125/3/6 129/3/6
f 129/3/6 125/3/6 130/3/6
f 130/3/6 125/3/6 131/3/6
f 125/2/6 126/2/6 132/2/6
f 131/3/6 125/3/6 132/3/6
f 120/2/6 90/2/6 133/2/6
f 132/2/6 126/2/6 133/2/6
f 126/2/6 120/2/6 133/2/6
f 133/2/6 90/2/6 134/2/6
f 127/1/6 128/1/6 135/1/6
f 129/2/6 130/2/6 135/2/6
f 128/2/6 129/2/6 135/2/6
f 135/2/6 130/2/6 136/2/6
f 130/3/6 131/3/6 137/3/6
f 136/2/6 130/2/6 137/2/6
f 131/2/6 132/2/6 138/2/6
f 137/3/6 131/3/6 138/3/6
f 132/2/6 133/2/6 138/2/6
f 138/2/6 133/2/6 139/2/6
f 133/1/6 134/1/6 140/1/6
f 139/2/6 133/2/6 140/2/6
f 136/2/6 137/2/6 141/2/6
f 138/2/6 139/2/6 141/2/6
f 135/1/6 136/1/6 141/1/6
f 137/2/6 138/2/6 141/2/6
f 141/2/6 139/2/6 142/2/6
f 142/2/6 139/2/6 143/2/6
f 139/1/6 140/1/6 144/1/6
f 143/2/6 139/2/6 144/2/6
f 127/1/6 135/1/6 145/1/6
f 135/1/6 141/1/6 145/1/6
f 141/1/6 142/1/6 145/1/6
f 142/2/6 143/2/6 146/2/6
f 145/1/6 142/1/6 146/1/6
f 143/1/6 144/1/6 147/1/6
f 146/2/6 143/2/6 147/2/6
f 140/1/6 134/1/6 148/1/6
f 147/1/6 144/1/6 148/1/6
f 144/1/6 140/1/6 148/1/6
